# xmcd
#
# Track frame offsets: 
#        150
#        11754
#        23589
#        35343
#        49931
#        61777
#        73637
#        87329
#        100670
#        114476
#        126169
#        138594
#        162517
#        174795
#        186332
#        199284
#        211497
#        222609
#        236084
#        247252
#        260876
#        272863
#        285243
#        295517
#        307223
#
# Disc length: 4249 seconds
#
# Revision: 0
# Processed by: cddbd v1.5.2PL0 Copyright (c) Steve Scherf et al.
# Submitted via: ExactAudioCopy v0.99pb5
#
DISCID=84109719
DTITLE=Various Artist - Further Mellow Cats 'N' Kittens: Hot R&B and Cool Blu
DTITLE=es 1946-1951
DYEAR=2011
DGENRE=Blues
TTITLE0=Rompin' The Boogie - Luke Jones and His Orchestra
TTITLE1=I Was Too Blind To See - Ira Amos
TTITLE2=Seven Days - Gory Carter
TTITLE3=Happy Pay Day Pt 1 - Austin McCoy
TTITLE4=The Man That Comes To My House - Three Bits Of Rhythm
TTITLE5=Everything Will Be Alright - Johnny Alston and His Orchestra
TTITLE6=Worried Life Blues - Red Mack with Luke Jones and His Orchestra
TTITLE7=Sunset Romp - P.K. Johnson
TTITLE8=Motel - Jimmy Witherspoon
TTITLE9=Trouble In Mind - Duke Henderson
TTITLE10=Cold Blooded Boogie - Jim Wynn and His Orchestra
TTITLE11=Mary You Are Mine Pts 1&2 - Felix Gross and His Orchestra
TTITLE12=Baby Sue aka Mary Sue - Ramp Davis
TTITLE13=Why Did You Say We're Through - Hadda Brooks and Her Trio
TTITLE14=Mean Ole Frisco - Red Mack with Luke Jones and His Orchestra
TTITLE15=Be On Your Merry Way - Effie Smith
TTITLE16=Forever On My Mind - Felix Gross and His Orchestra
TTITLE17=Wine, Wine, Wine - The Herb Fisher Trio
TTITLE18=In The Evening When The Sun Goes Down - Duke Henderson
TTITLE19=Four O'Clock In The Morning - Gory Carter
TTITLE20=Mellow Scat - Bebopper Lulu and Her Orchestra
TTITLE21=Blue And Disgusted - Ira Amos
TTITLE22=In The Oven - Teddy Bunn with The Hootie McShann Trio
TTITLE23=Don't Want Nobody Else - The Herb Fisher Trio
TTITLE24=Jump Me Some Boogie - Luke Jones and His Orchestra
EXTD=
EXTT0=
EXTT1=
EXTT2=
EXTT3=
EXTT4=
EXTT5=
EXTT6=
EXTT7=
EXTT8=
EXTT9=
EXTT10=
EXTT11=
EXTT12=
EXTT13=
EXTT14=
EXTT15=
EXTT16=
EXTT17=
EXTT18=
EXTT19=
EXTT20=
EXTT21=
EXTT22=
EXTT23=
EXTT24=
PLAYORDER=
